<mxfile host="app.diagrams.net" modified="2024-06-10T06:25:06.979Z" agent="Mozilla/5.0 (Windows NT 10.0; Win64; x64) AppleWebKit/537.36 (KHTML, like Gecko) Chrome/125.0.0.0 Safari/537.36" etag="YI3UnOpKu3UjgNmK5jFF" version="24.5.2" type="device">
  <diagram name="Страница — 1" id="AxyARnsmCxJRbuG2hBth">
    <mxGraphModel dx="766" dy="394" grid="1" gridSize="10" guides="1" tooltips="1" connect="1" arrows="1" fold="1" page="1" pageScale="1" pageWidth="827" pageHeight="1169" math="0" shadow="0">
      <root>
        <mxCell id="0" />
        <mxCell id="1" parent="0" />
        <mxCell id="64Vas0l4zPw11lhMuKTm-18" value="Client" style="swimlane;fontStyle=0;childLayout=stackLayout;horizontal=1;startSize=30;horizontalStack=0;resizeParent=1;resizeParentMax=0;resizeLast=0;collapsible=1;marginBottom=0;whiteSpace=wrap;html=1;" parent="1" vertex="1">
          <mxGeometry x="93" y="150" width="140" height="190" as="geometry" />
        </mxCell>
        <mxCell id="64Vas0l4zPw11lhMuKTm-23" value="&lt;div&gt;&amp;nbsp;id: integer&lt;/div&gt;&lt;div&gt;&lt;br&gt;&lt;/div&gt;&lt;div&gt;&amp;nbsp;Fullname: string&lt;/div&gt;&lt;div&gt;&lt;br&gt;&lt;/div&gt;&lt;div&gt;&amp;nbsp;Number: string&lt;/div&gt;" style="text;strokeColor=none;fillColor=none;html=1;whiteSpace=wrap;verticalAlign=middle;overflow=hidden;" parent="64Vas0l4zPw11lhMuKTm-18" vertex="1">
          <mxGeometry y="30" width="140" height="80" as="geometry" />
        </mxCell>
        <mxCell id="64Vas0l4zPw11lhMuKTm-25" value="&lt;div&gt;&amp;nbsp;Email: string&lt;/div&gt;&lt;div&gt;&lt;br&gt;&lt;/div&gt;&lt;div&gt;&amp;nbsp;Password: string&lt;/div&gt;&lt;div&gt;&lt;br&gt;&lt;/div&gt;&lt;div&gt;&amp;nbsp;Departament: string&lt;/div&gt;" style="text;strokeColor=none;fillColor=none;html=1;whiteSpace=wrap;verticalAlign=middle;overflow=hidden;" parent="64Vas0l4zPw11lhMuKTm-18" vertex="1">
          <mxGeometry y="110" width="140" height="80" as="geometry" />
        </mxCell>
        <mxCell id="64Vas0l4zPw11lhMuKTm-26" value="&lt;span style=&quot;font-size: 12px;&quot;&gt;Application&lt;/span&gt;" style="swimlane;fontStyle=0;childLayout=stackLayout;horizontal=1;startSize=30;horizontalStack=0;resizeParent=1;resizeParentMax=0;resizeLast=0;collapsible=1;marginBottom=0;whiteSpace=wrap;html=1;" parent="1" vertex="1">
          <mxGeometry x="333" y="150" width="140" height="190" as="geometry" />
        </mxCell>
        <mxCell id="64Vas0l4zPw11lhMuKTm-27" value="&lt;div&gt;&amp;nbsp;id: integer&lt;/div&gt;&lt;div&gt;&lt;br&gt;&lt;/div&gt;&lt;div&gt;&amp;nbsp;Fullname: string&lt;/div&gt;&lt;div&gt;&lt;br&gt;&lt;/div&gt;&lt;div&gt;&amp;nbsp;Departament: string&lt;/div&gt;" style="text;strokeColor=none;fillColor=none;html=1;whiteSpace=wrap;verticalAlign=middle;overflow=hidden;" parent="64Vas0l4zPw11lhMuKTm-26" vertex="1">
          <mxGeometry y="30" width="140" height="80" as="geometry" />
        </mxCell>
        <mxCell id="64Vas0l4zPw11lhMuKTm-28" value="&lt;div&gt;&amp;nbsp;Category: string&lt;/div&gt;&lt;div&gt;&lt;br&gt;&lt;/div&gt;&lt;div&gt;&amp;nbsp;Problem: string&lt;/div&gt;&lt;div&gt;&lt;br&gt;&lt;/div&gt;&lt;div&gt;&amp;nbsp;Status: string&lt;/div&gt;" style="text;strokeColor=none;fillColor=none;html=1;whiteSpace=wrap;verticalAlign=middle;overflow=hidden;" parent="64Vas0l4zPw11lhMuKTm-26" vertex="1">
          <mxGeometry y="110" width="140" height="80" as="geometry" />
        </mxCell>
        <mxCell id="64Vas0l4zPw11lhMuKTm-31" value="Category" style="swimlane;fontStyle=0;childLayout=stackLayout;horizontal=1;startSize=30;horizontalStack=0;resizeParent=1;resizeParentMax=0;resizeLast=0;collapsible=1;marginBottom=0;whiteSpace=wrap;html=1;" parent="1" vertex="1">
          <mxGeometry x="473" y="400" width="140" height="90" as="geometry" />
        </mxCell>
        <mxCell id="64Vas0l4zPw11lhMuKTm-32" value="id: integer" style="text;strokeColor=none;fillColor=none;align=left;verticalAlign=middle;spacingLeft=4;spacingRight=4;overflow=hidden;points=[[0,0.5],[1,0.5]];portConstraint=eastwest;rotatable=0;whiteSpace=wrap;html=1;" parent="64Vas0l4zPw11lhMuKTm-31" vertex="1">
          <mxGeometry y="30" width="140" height="30" as="geometry" />
        </mxCell>
        <mxCell id="64Vas0l4zPw11lhMuKTm-33" value="Name: string" style="text;strokeColor=none;fillColor=none;align=left;verticalAlign=middle;spacingLeft=4;spacingRight=4;overflow=hidden;points=[[0,0.5],[1,0.5]];portConstraint=eastwest;rotatable=0;whiteSpace=wrap;html=1;" parent="64Vas0l4zPw11lhMuKTm-31" vertex="1">
          <mxGeometry y="60" width="140" height="30" as="geometry" />
        </mxCell>
        <mxCell id="64Vas0l4zPw11lhMuKTm-35" value="Admin" style="swimlane;fontStyle=0;childLayout=stackLayout;horizontal=1;startSize=30;horizontalStack=0;resizeParent=1;resizeParentMax=0;resizeLast=0;collapsible=1;marginBottom=0;whiteSpace=wrap;html=1;" parent="1" vertex="1">
          <mxGeometry x="593" y="200" width="140" height="140" as="geometry" />
        </mxCell>
        <mxCell id="64Vas0l4zPw11lhMuKTm-36" value="id: integer" style="text;strokeColor=none;fillColor=none;align=left;verticalAlign=middle;spacingLeft=4;spacingRight=4;overflow=hidden;points=[[0,0.5],[1,0.5]];portConstraint=eastwest;rotatable=0;whiteSpace=wrap;html=1;" parent="64Vas0l4zPw11lhMuKTm-35" vertex="1">
          <mxGeometry y="30" width="140" height="30" as="geometry" />
        </mxCell>
        <mxCell id="64Vas0l4zPw11lhMuKTm-39" value="&lt;div&gt;&amp;nbsp;Name: string&lt;/div&gt;&lt;div&gt;&lt;span style=&quot;background-color: initial;&quot;&gt;&lt;br&gt;&lt;/span&gt;&lt;/div&gt;&lt;div&gt;&amp;nbsp;Login: string&lt;/div&gt;&lt;div&gt;&lt;br&gt;&lt;/div&gt;&lt;div&gt;&amp;nbsp;Password: string&lt;/div&gt;" style="text;strokeColor=none;fillColor=none;html=1;whiteSpace=wrap;verticalAlign=middle;overflow=hidden;" parent="64Vas0l4zPw11lhMuKTm-35" vertex="1">
          <mxGeometry y="60" width="140" height="80" as="geometry" />
        </mxCell>
        <mxCell id="64Vas0l4zPw11lhMuKTm-41" style="edgeStyle=orthogonalEdgeStyle;rounded=0;orthogonalLoop=1;jettySize=auto;html=1;entryX=-0.002;entryY=0.14;entryDx=0;entryDy=0;entryPerimeter=0;endArrow=block;endFill=0;" parent="1" source="64Vas0l4zPw11lhMuKTm-18" target="64Vas0l4zPw11lhMuKTm-27" edge="1">
          <mxGeometry relative="1" as="geometry" />
        </mxCell>
        <mxCell id="64Vas0l4zPw11lhMuKTm-43" style="edgeStyle=orthogonalEdgeStyle;rounded=0;orthogonalLoop=1;jettySize=auto;html=1;entryX=1.007;entryY=0.111;entryDx=0;entryDy=0;entryPerimeter=0;endArrow=block;endFill=0;" parent="1" source="64Vas0l4zPw11lhMuKTm-36" target="64Vas0l4zPw11lhMuKTm-27" edge="1">
          <mxGeometry relative="1" as="geometry" />
        </mxCell>
        <mxCell id="64Vas0l4zPw11lhMuKTm-44" style="edgeStyle=orthogonalEdgeStyle;rounded=0;orthogonalLoop=1;jettySize=auto;html=1;entryX=0.006;entryY=0.718;entryDx=0;entryDy=0;entryPerimeter=0;" parent="1" source="64Vas0l4zPw11lhMuKTm-28" target="64Vas0l4zPw11lhMuKTm-32" edge="1">
          <mxGeometry relative="1" as="geometry" />
        </mxCell>
      </root>
    </mxGraphModel>
  </diagram>
</mxfile>
